<svg width="250.26" height="147.322" viewBox="0 0 66.215 38.979" xmlns="http://www.w3.org/2000/svg">
   <path
      style="fill:none;fill-opacity:1;stroke-width:3.85409;stroke-miterlimit:4;stroke-dasharray:none;stroke-opacity:1"
      d="M235.24 68.143a9.09 9.09 0 0 0-7.69 4.561l-9.759 16.903a9.09 9.09 0 0 0 3.334 12.443 9.09 9.09 0 0 0 12.443-3.334l9.759-16.904a9.09 9.09 0 0 0-3.334-12.442 9.1 9.1 0 0 0-4.754-1.227zm22.07 0a9.09 9.09 0 0 0-7.688 4.561l-9.759 16.903a9.09 9.09 0 0 0 3.334 12.443 9.09 9.09 0 0 0 12.443-3.334l9.759-16.904a9.09 9.09 0 0 0-3.334-12.442 9.1 9.1 0 0 0-4.754-1.227zm12.517 16.906a9.11 9.11 0 0 0-9.109 9.108 9.11 9.11 0 0 0 9.11 9.11 9.11 9.11 0 0 0 9.107-9.11 9.11 9.11 0 0 0-9.108-9.108z"
      stroke="#7093ff" transform="translate(-214.648 -66.214)" />
</svg>